<?xml version="1.0" standalone="no"?>
<!DOCTYPE svg PUBLIC "-//W3C//DTD SVG 20010904//EN"
 "http://www.w3.org/TR/2001/REC-SVG-20010904/DTD/svg10.dtd">
<svg version="1.0" xmlns="http://www.w3.org/2000/svg"
 width="342.000000pt" height="351.000000pt" viewBox="0 0 342.000000 351.000000"
 preserveAspectRatio="xMidYMid meet">

<g transform="translate(0.000000,351.000000) scale(0.100000,-0.100000)"
fill="#000000" stroke="none">
<path d="M1520 3473 c-125 -12 -202 -27 -207 -39 -3 -7 -26 -192 -52 -411
l-47 -398 39 -34 c41 -36 76 -99 77 -138 0 -24 -18 -18 370 -138 306 -95 478
-149 693 -216 138 -43 172 -51 185 -41 94 69 213 69 288 0 21 -19 22 -18 179
57 l157 76 -6 42 c-12 73 -76 248 -133 359 -191 376 -528 667 -928 803 -185
62 -444 95 -615 78z"/>
<path d="M1090 3381 c-246 -92 -449 -226 -624 -411 -77 -82 -166 -194 -166
-208 0 -5 145 -54 322 -109 l322 -102 38 35 c22 19 52 37 69 41 16 3 31 9 34
13 2 4 22 162 45 351 22 189 43 361 46 382 3 20 2 37 -3 37 -4 -1 -42 -14 -83
-29z"/>
<path d="M186 2572 c-42 -84 -110 -282 -130 -382 -90 -447 14 -913 287 -1280
23 -30 50 -65 60 -77 l19 -22 169 85 c166 83 169 85 169 117 1 69 73 167 135
183 14 3 25 10 25 14 0 4 20 178 45 386 79 660 77 638 64 643 -21 7 -80 64
-95 92 -8 16 -18 45 -22 66 l-8 37 -329 103 c-182 56 -336 103 -342 103 -7 0
-28 -31 -47 -68z"/>
<path d="M1269 2282 c-14 -15 -43 -36 -65 -47 l-39 -21 -58 -499 c-34 -291
-55 -505 -50 -513 4 -7 20 -21 36 -30 l27 -17 699 350 700 349 -2 38 c-1 25
-7 40 -17 42 -8 3 -281 88 -607 190 -326 103 -593 186 -595 186 -2 -1 -15 -13
-29 -28z"/>
<path d="M3080 1994 l-135 -66 123 -38 c190 -59 172 -59 172 -2 0 67 -12 172
-19 172 -3 0 -67 -30 -141 -66z"/>
<path d="M2891 1771 c-28 -39 -114 -81 -166 -81 -25 0 -62 10 -91 25 -27 14
-52 25 -55 25 -4 0 -319 -155 -701 -344 l-696 -344 -4 -64 c-5 -86 -40 -138
-117 -175 -31 -14 -58 -28 -60 -29 -2 -2 -13 -85 -25 -185 l-22 -181 21 -14
c34 -22 241 -91 325 -108 305 -62 596 -40 882 65 103 37 292 136 373 194 366
261 606 657 670 1105 l7 46 -154 47 c-84 26 -156 47 -160 47 -4 0 -16 -13 -27
-29z"/>
<path d="M655 788 l-140 -71 63 -57 c76 -70 242 -184 252 -173 4 4 15 79 24
165 l17 158 -28 25 c-15 13 -32 24 -38 24 -5 0 -73 -32 -150 -71z"/>
</g>
</svg>
